<svg width="18" height="18" viewBox="0 0 18 18" fill="none" xmlns="http://www.w3.org/2000/svg">
<path d="M7.5 6H10.5V4.875C10.5 3.42525 11.6753 2.25 13.125 2.25C14.5747 2.25 15.75 3.42525 15.75 4.875C15.75 6.32475 14.5747 7.5 13.125 7.5H12V10.5H13.125C14.5747 10.5 15.75 11.6753 15.75 13.125C15.75 14.5747 14.5747 15.75 13.125 15.75C11.6753 15.75 10.5 14.5747 10.5 13.125V12H7.5V13.125C7.5 14.5747 6.32475 15.75 4.875 15.75C3.42525 15.75 2.25 14.5747 2.25 13.125C2.25 11.6753 3.42525 10.5 4.875 10.5H6V7.5H4.875C3.42525 7.5 2.25 6.32475 2.25 4.875C2.25 3.42525 3.42525 2.25 4.875 2.25C6.32475 2.25 7.5 3.42525 7.5 4.875V6ZM6 6V4.875C6 4.25368 5.49632 3.75 4.875 3.75C4.25368 3.75 3.75 4.25368 3.75 4.875C3.75 5.49632 4.25368 6 4.875 6H6ZM6 12H4.875C4.25368 12 3.75 12.5037 3.75 13.125C3.75 13.7463 4.25368 14.25 4.875 14.25C5.49632 14.25 6 13.7463 6 13.125V12ZM12 6H13.125C13.7463 6 14.25 5.49632 14.25 4.875C14.25 4.25368 13.7463 3.75 13.125 3.75C12.5037 3.75 12 4.25368 12 4.875V6ZM12 12V13.125C12 13.7463 12.5037 14.25 13.125 14.25C13.7463 14.25 14.25 13.7463 14.25 13.125C14.25 12.5037 13.7463 12 13.125 12H12ZM7.5 7.5V10.5H10.5V7.5H7.5Z" fill="#8A8D91"/>
</svg>
